<svg xmlns="http://www.w3.org/2000/svg" xmlns:xlink="http://www.w3.org/1999/xlink" viewBox="0 0 3658 2584"><defs><style>.cls-1{fill:url(#linear-gradient);}.cls-2{fill:#dbd2d2;}.cls-3{fill:url(#linear-gradient-2);}.cls-4{fill:none;}.cls-5{fill:#383838;}.cls-6{fill:#565656;}</style><linearGradient id="linear-gradient" x1="7141.81" y1="3330" x2="8503" y2="3330" gradientTransform="translate(5161 -7141.81) rotate(90)" gradientUnits="userSpaceOnUse"><stop offset="0" stop-color="blue" stop-opacity="0.6"/><stop offset="0.05" stop-color="#0000c5" stop-opacity="0.69"/><stop offset="0.11" stop-color="#000090" stop-opacity="0.77"/><stop offset="0.17" stop-color="#000063" stop-opacity="0.84"/><stop offset="0.25" stop-color="#00003e" stop-opacity="0.9"/><stop offset="0.33" stop-color="#002" stop-opacity="0.95"/><stop offset="0.44" stop-color="#00000e" stop-opacity="0.98"/><stop offset="0.59" stop-color="#000003"/><stop offset="1"/></linearGradient><linearGradient id="linear-gradient-2" x1="-797.15" y1="6464" x2="425" y2="6464" gradientTransform="translate(8295 2159) rotate(90)" gradientUnits="userSpaceOnUse"><stop offset="0" stop-color="blue" stop-opacity="0.6"/><stop offset="0.13" stop-color="#33f" stop-opacity="0.68"/><stop offset="0.31" stop-color="#7171ff" stop-opacity="0.78"/><stop offset="0.48" stop-color="#a3a3ff" stop-opacity="0.86"/><stop offset="0.64" stop-color="#cbcbff" stop-opacity="0.92"/><stop offset="0.78" stop-color="#e8e8ff" stop-opacity="0.96"/><stop offset="0.91" stop-color="#f9f9ff" stop-opacity="0.99"/><stop offset="1" stop-color="#fff"/></linearGradient></defs><title>Artboard 37</title><g id="iphone_screen"><rect class="cls-1" x="411" width="2840" height="1361.19" transform="translate(3662 1361.19) rotate(180)"/><circle class="cls-2" cx="2930.02" cy="265.41" r="213.09"/><ellipse class="cls-2" cx="464.62" cy="98.25" rx="2.04" ry="1.36"/><ellipse class="cls-2" cx="490.45" cy="198.84" rx="2.04" ry="1.36"/><ellipse class="cls-2" cx="673.96" cy="88.73" rx="2.04" ry="1.36"/><ellipse class="cls-2" cx="697.07" cy="73.78" rx="2.04" ry="1.36" transform="translate(77.42 401.47) rotate(-33.91)"/><ellipse class="cls-2" cx="786.79" cy="202.92" rx="2.04" ry="1.36"/><ellipse class="cls-2" cx="726.98" cy="226.03" rx="2.04" ry="1.36"/><ellipse class="cls-2" cx="752.8" cy="231.47" rx="2.04" ry="1.36"/><ellipse class="cls-2" cx="752.8" cy="171.66" rx="2.04" ry="1.36"/><ellipse class="cls-2" cx="642.7" cy="68.34" rx="2.04" ry="1.36" transform="translate(71.2 370.21) rotate(-33.91)"/><ellipse class="cls-2" cx="797.66" cy="35.72" rx="2.04" ry="1.36" transform="translate(115.76 451.12) rotate(-33.91)"/><ellipse class="cls-2" cx="861.55" cy="16.69" rx="1.36" ry="2.04" transform="translate(527.22 810.9) rotate(-68.28)"/><ellipse class="cls-2" cx="826.21" cy="102.33" rx="1.36" ry="2.04" transform="translate(425.4 832.02) rotate(-68.28)"/><ellipse class="cls-2" cx="880.59" cy="83.3" rx="1.36" ry="2.04" transform="translate(477.33 870.54) rotate(-68.28)"/><ellipse class="cls-2" cx="842.52" cy="139.03" rx="1.36" ry="2.04" transform="translate(401.58 870.29) rotate(-68.28)"/><ellipse class="cls-2" cx="644.05" cy="125.44" rx="1.36" ry="2.04" transform="translate(289.18 677.35) rotate(-68.28)"/><ellipse class="cls-2" cx="1012.45" cy="159.42" rx="1.36" ry="2.04" transform="translate(489.67 1040.99) rotate(-68.28)"/><ellipse class="cls-2" cx="1030.12" cy="137.67" rx="1.36" ry="2.04" transform="translate(521.01 1043.71) rotate(-68.28)"/><ellipse class="cls-2" cx="1043.71" cy="115.92" rx="1.36" ry="2.04" transform="translate(549.78 1042.64) rotate(-68.28)"/><ellipse class="cls-2" cx="875.15" cy="197.48" rx="1.36" ry="2.04" transform="translate(367.82 937.42) rotate(-68.28)"/><ellipse class="cls-2" cx="891.46" cy="170.3" rx="1.36" ry="2.04" transform="translate(403.36 935.45) rotate(-68.28)"/><ellipse class="cls-2" cx="897.25" cy="156.35" rx="2.58" ry="3.6" transform="matrix(0.37, -0.93, 0.93, 0.37, 419.96, 932.05)"/><ellipse class="cls-2" cx="807.18" cy="246.42" rx="1.36" ry="2.04" transform="translate(279.54 905.11) rotate(-68.28)"/><ellipse class="cls-2" cx="1046.43" cy="197.48" rx="1.36" ry="2.04" transform="translate(475.72 1096.54) rotate(-68.28)"/><ellipse class="cls-2" cx="1016.52" cy="126.8" rx="1.36" ry="2.04" transform="translate(522.55 1024.23) rotate(-68.28)"/><ellipse class="cls-2" cx="627.74" cy="111.84" rx="1.36" ry="2.04" transform="translate(291.53 653.63) rotate(-68.28)"/><ellipse class="cls-2" cx="804.46" cy="105.05" rx="1.36" ry="2.04" transform="translate(409.17 813.52) rotate(-68.28)"/><ellipse class="cls-2" cx="945.84" cy="68.34" rx="1.36" ry="2.04" transform="translate(532.32 921.74) rotate(-68.28)"/><ellipse class="cls-2" cx="1020.6" cy="66.98" rx="1.36" ry="2.04" transform="translate(580.69 990.34) rotate(-68.28)"/><ellipse class="cls-2" cx="1062.74" cy="8.53" rx="1.36" ry="2.04" transform="translate(661.53 992.67) rotate(-68.28)"/><ellipse class="cls-2" cx="1114.4" cy="86.02" rx="1.36" ry="2.04" transform="translate(622.09 1089.47) rotate(-68.28)"/><ellipse class="cls-2" cx="1198.68" cy="215.16" rx="1.36" ry="2.04" transform="translate(555.21 1249.12) rotate(-68.28)"/><ellipse class="cls-2" cx="1142.95" cy="205.64" rx="1.36" ry="2.04" transform="translate(528.94 1191.34) rotate(-68.28)"/><ellipse class="cls-2" cx="1238.1" cy="213.8" rx="1.36" ry="2.04" transform="translate(581.31 1284.88) rotate(-68.28)"/><ellipse class="cls-2" cx="1282.96" cy="208.36" rx="1.36" ry="2.04" transform="translate(614.62 1323.13) rotate(-68.28)"/><ellipse class="cls-2" cx="1316.95" cy="253.22" rx="1.36" ry="2.04" transform="translate(594.35 1382.96) rotate(-68.28)"/><ellipse class="cls-2" cx="1344.13" cy="227.39" rx="1.36" ry="2.04" transform="translate(635.47 1391.95) rotate(-68.28)"/><ellipse class="cls-2" cx="1304.71" cy="251.86" rx="1.36" ry="2.04" transform="translate(587.91 1370.74) rotate(-68.28)"/><ellipse class="cls-2" cx="1224.51" cy="264.09" rx="1.36" ry="2.04" transform="translate(526.02 1303.94) rotate(-68.28)"/><ellipse class="cls-2" cx="1170.13" cy="266.81" rx="1.36" ry="2.04" transform="translate(489.24 1255.14) rotate(-68.28)"/><ellipse class="cls-2" cx="1129.35" cy="149.91" rx="1.36" ry="2.04" transform="translate(572.16 1143.61) rotate(-68.28)"/><ellipse class="cls-2" cx="983.9" cy="120" rx="1.36" ry="2.04" transform="translate(508.31 989.64) rotate(-68.28)"/><ellipse class="cls-2" cx="630.46" cy="187.97" rx="1.36" ry="2.04" transform="translate(222.53 704.11) rotate(-68.28)"/><ellipse class="cls-2" cx="608.71" cy="173.02" rx="1.36" ry="2.04" transform="translate(222.72 674.49) rotate(-68.28)"/><ellipse class="cls-2" cx="592.4" cy="130.88" rx="1.36" ry="2.04" transform="translate(251.59 632.78) rotate(-68.28)"/><ellipse class="cls-2" cx="548.9" cy="83.3" rx="1.36" ry="2.04" transform="translate(268.39 562.4) rotate(-68.28)"/><ellipse class="cls-2" cx="502.68" cy="50.67" rx="1.36" ry="2.04" transform="translate(269.58 498.91) rotate(-68.28)"/><ellipse class="cls-2" cx="552.98" cy="62.91" rx="1.36" ry="2.04" transform="translate(289.9 553.35) rotate(-68.28)"/><ellipse class="cls-2" cx="580.16" cy="42.52" rx="1.36" ry="2.04" transform="translate(325.97 565.76) rotate(-68.28)"/><ellipse class="cls-2" cx="637.26" cy="22.13" rx="1.36" ry="2.04" transform="translate(380.88 605.95) rotate(-68.28)"/><ellipse class="cls-2" cx="697.07" cy="19.41" rx="1.36" ry="2.04" transform="translate(421.08 659.81) rotate(-68.28)"/><ellipse class="cls-2" cx="949.91" cy="121.36" rx="1.36" ry="2.04" transform="translate(485.64 958.92) rotate(-68.28)"/><ellipse class="cls-2" cx="949.91" cy="166.22" rx="1.36" ry="2.04" transform="translate(443.97 987.18) rotate(-68.28)"/><ellipse class="cls-2" cx="952.63" cy="212.44" rx="1.36" ry="2.04" transform="translate(402.74 1018.82) rotate(-68.28)"/><rect class="cls-3" x="411" y="1361.85" width="2840" height="1222.15"/><rect class="cls-4" x="415" y="2126.44" width="973.31" height="473.06" rx="3.88"/><ellipse class="cls-2" cx="982.54" cy="359.25" rx="1.36" ry="2.04" transform="translate(285.19 1139.09) rotate(-68.28)"/><ellipse class="cls-2" cx="978.46" cy="338.86" rx="1.36" ry="2.04" transform="translate(301.57 1122.46) rotate(-68.28)"/><ellipse class="cls-2" cx="1036.91" cy="329.34" rx="1.36" ry="2.04" transform="translate(347.23 1170.77) rotate(-68.28)"/><ellipse class="cls-2" cx="1072.26" cy="333.42" rx="1.36" ry="2.04" transform="translate(365.7 1206.17) rotate(-68.28)"/><ellipse class="cls-2" cx="1074.98" cy="387.8" rx="1.36" ry="2.04" transform="translate(316.9 1242.95) rotate(-68.28)"/><ellipse class="cls-2" cx="1098.09" cy="288.56" rx="1.36" ry="2.04" transform="translate(423.65 1201.9) rotate(-68.28)"/><ellipse class="cls-2" cx="1046.43" cy="283.13" rx="1.36" ry="2.04" transform="translate(396.16 1150.49) rotate(-68.28)"/><ellipse class="cls-2" cx="979.82" cy="288.56" rx="1.36" ry="2.04" transform="translate(349.15 1092.04) rotate(-68.28)"/><ellipse class="cls-2" cx="939.04" cy="298.08" rx="1.36" ry="2.04" transform="translate(314.62 1060.14) rotate(-68.28)"/><ellipse class="cls-2" cx="920.01" cy="245.06" rx="1.36" ry="2.04" transform="translate(351.88 1009.07) rotate(-68.28)"/><ellipse class="cls-2" cx="887.38" cy="306.23" rx="1.36" ry="2.04" transform="translate(274.5 1017.29) rotate(-68.28)"/><ellipse class="cls-2" cx="861.55" cy="360.61" rx="1.36" ry="2.04" transform="translate(207.72 1027.55) rotate(-68.28)"/><ellipse class="cls-2" cx="837.09" cy="397.31" rx="1.36" ry="2.04" transform="translate(158.2 1027.94) rotate(-68.28)"/><ellipse class="cls-2" cx="830.29" cy="401.39" rx="1.36" ry="2.04" transform="translate(150.13 1024.19) rotate(-68.28)"/><ellipse class="cls-2" cx="790.87" cy="398.67" rx="1.36" ry="2.04" transform="translate(127.83 985.86) rotate(-68.28)"/><ellipse class="cls-2" cx="775.91" cy="395.95" rx="1.36" ry="2.04" transform="translate(120.93 970.25) rotate(-68.28)"/><ellipse class="cls-2" cx="760.96" cy="363.33" rx="1.36" ry="2.04" transform="translate(141.82 935.81) rotate(-68.28)"/><ellipse class="cls-2" cx="778.63" cy="321.19" rx="1.36" ry="2.04" transform="translate(192.1 925.68) rotate(-68.28)"/><ellipse class="cls-2" cx="778.63" cy="319.83" rx="1.36" ry="2.04" transform="translate(193.37 924.83) rotate(-68.28)"/><ellipse class="cls-2" cx="748.73" cy="321.19" rx="1.36" ry="2.04" transform="translate(173.26 897.9) rotate(-68.28)"/><ellipse class="cls-2" cx="748.73" cy="321.19" rx="1.36" ry="2.04" transform="translate(173.26 897.9) rotate(-68.28)"/><ellipse class="cls-2" cx="684.84" cy="323.91" rx="1.36" ry="2.04" transform="translate(130.49 840.26) rotate(-68.28)"/><ellipse class="cls-2" cx="639.98" cy="329.34" rx="1.36" ry="2.04" transform="translate(97.18 802.01) rotate(-68.28)"/><ellipse class="cls-2" cx="639.98" cy="329.34" rx="1.36" ry="2.04" transform="translate(97.18 802.01) rotate(-68.28)"/><ellipse class="cls-2" cx="614.15" cy="308.95" rx="1.36" ry="2.04" transform="translate(99.85 765.17) rotate(-68.28)"/><ellipse class="cls-2" cx="619.59" cy="298.08" rx="1.36" ry="2.04" transform="translate(113.38 763.37) rotate(-68.28)"/><ellipse class="cls-2" cx="642.7" cy="253.22" rx="1.36" ry="2.04" transform="translate(169.62 756.58) rotate(-68.28)"/><ellipse class="cls-2" cx="649.49" cy="246.42" rx="1.36" ry="2.04" transform="translate(180.21 758.61) rotate(-68.28)"/><ellipse class="cls-2" cx="649.49" cy="246.42" rx="1.36" ry="2.04" transform="translate(180.21 758.61) rotate(-68.28)"/><ellipse class="cls-2" cx="595.12" cy="239.63" rx="1.36" ry="2.04" transform="translate(152.27 703.82) rotate(-68.28)"/><ellipse class="cls-2" cx="595.12" cy="239.63" rx="1.36" ry="2.04" transform="translate(152.27 703.82) rotate(-68.28)"/><ellipse class="cls-2" cx="544.82" cy="235.55" rx="1.36" ry="2.04" transform="translate(124.38 654.52) rotate(-68.28)"/><ellipse class="cls-2" cx="493.16" cy="276.33" rx="1.36" ry="2.04" transform="translate(53.95 632.22) rotate(-68.28)"/><ellipse class="cls-2" cx="490.45" cy="281.77" rx="1.36" ry="2.04" transform="translate(47.19 633.12) rotate(-68.28)"/><ellipse class="cls-2" cx="482.29" cy="318.47" rx="1.36" ry="2.04" transform="translate(7.95 648.66) rotate(-68.28)"/><ellipse class="cls-2" cx="493.16" cy="347.02" rx="1.36" ry="2.04" transform="translate(-11.72 676.75) rotate(-68.28)"/><ellipse class="cls-2" cx="510.84" cy="374.2" rx="1.36" ry="2.04" transform="translate(-25.84 710.29) rotate(-68.28)"/><ellipse class="cls-2" cx="531.23" cy="375.56" rx="1.36" ry="2.04" transform="translate(-14.26 730.09) rotate(-68.28)"/><ellipse class="cls-2" cx="531.23" cy="375.56" rx="1.36" ry="2.04" transform="translate(-14.26 730.09) rotate(-68.28)"/><ellipse class="cls-2" cx="591.04" cy="368.77" rx="1.36" ry="2.04" transform="translate(29.73 781.38) rotate(-68.28)"/><ellipse class="cls-2" cx="638.62" cy="357.89" rx="1.36" ry="2.04" transform="translate(69.81 818.73) rotate(-68.28)"/><ellipse class="cls-2" cx="664.45" cy="347.02" rx="1.36" ry="2.04" transform="translate(96.18 835.87) rotate(-68.28)"/><ellipse class="cls-2" cx="672.6" cy="366.05" rx="1.36" ry="2.04" transform="translate(83.64 855.44) rotate(-68.28)"/><ellipse class="cls-2" cx="679.4" cy="401.39" rx="1.36" ry="2.04" transform="translate(55.08 884.02) rotate(-68.28)"/><ellipse class="cls-2" cx="694.35" cy="417.7" rx="1.36" ry="2.04" transform="translate(49.35 908.18) rotate(-68.28)"/><ellipse class="cls-2" cx="698.43" cy="417.7" rx="1.36" ry="2.04" transform="translate(51.92 911.97) rotate(-68.28)"/><ellipse class="cls-2" cx="754.16" cy="406.83" rx="1.36" ry="2.04" transform="translate(97.13 956.9) rotate(-68.28)"/><ellipse class="cls-2" cx="1108.96" cy="511.5" rx="1.36" ry="2.04" transform="translate(223.39 1352.44) rotate(-68.28)"/><ellipse class="cls-2" cx="1057.3" cy="553.64" rx="1.36" ry="2.04" transform="translate(151.7 1331) rotate(-68.28)"/><ellipse class="cls-2" cx="1057.3" cy="553.64" rx="1.36" ry="2.04" transform="translate(151.7 1331) rotate(-68.28)"/><ellipse class="cls-2" cx="1263.93" cy="478.88" rx="1.36" ry="2.04" transform="translate(351.32 1475.86) rotate(-68.28)"/><ellipse class="cls-2" cx="1315.59" cy="545.48" rx="1.36" ry="2.04" transform="translate(321.98 1565.81) rotate(-68.28)"/><ellipse class="cls-2" cx="1220.43" cy="427.22" rx="1.36" ry="2.04" transform="translate(371.9 1402.91) rotate(-68.28)"/><ellipse class="cls-2" cx="1179.65" cy="389.16" rx="1.36" ry="2.04" transform="translate(381.57 1341.04) rotate(-68.28)"/><ellipse class="cls-2" cx="1250.34" cy="391.88" rx="1.36" ry="2.04" transform="translate(423.58 1408.43) rotate(-68.28)"/><ellipse class="cls-2" cx="1344.13" cy="419.06" rx="1.36" ry="2.04" transform="translate(457.41 1512.69) rotate(-68.28)"/><ellipse class="cls-2" cx="1023.32" cy="431.3" rx="1.36" ry="2.04" transform="translate(243.95 1222.36) rotate(-68.28)"/><ellipse class="cls-2" cx="922.73" cy="511.5" rx="1.36" ry="2.04" transform="translate(106.07 1179.43) rotate(-68.28)"/><ellipse class="cls-2" cx="884.66" cy="512.86" rx="1.36" ry="2.04" transform="translate(80.83 1144.93) rotate(-68.28)"/><ellipse class="cls-2" cx="773.2" cy="514.22" rx="1.36" ry="2.04" transform="translate(9.35 1042.23) rotate(-68.28)"/><ellipse class="cls-2" cx="642.7" cy="541.41" rx="1.36" ry="2.04" transform="translate(-98.11 938.12) rotate(-68.28)"/><ellipse class="cls-2" cx="637.26" cy="448.97" rx="1.36" ry="2.04" transform="translate(-15.66 874.84) rotate(-68.28)"/><ellipse class="cls-2" cx="557.05" cy="473.44" rx="1.36" ry="2.04" transform="translate(-88.92 815.74) rotate(-68.28)"/><ellipse class="cls-2" cx="527.15" cy="523.73" rx="1.36" ry="2.04" transform="translate(-154.48 819.64) rotate(-68.28)"/><ellipse class="cls-2" cx="499.96" cy="478.88" rx="1.36" ry="2.04" transform="translate(-129.93 766.13) rotate(-68.28)"/><ellipse class="cls-2" cx="487.73" cy="455.77" rx="1.36" ry="2.04" transform="translate(-116.17 740.2) rotate(-68.28)"/><polygon class="cls-5" points="411 2124.55 584.24 2139.12 624.3 2163.41 671.37 2190.6 724.44 2223.63 796.54 2190.6 852.62 2223.63 898.69 2242.09 974.79 2213.92 1046.9 2208.09 1046.9 2308.14 1086.95 2311.05 1140.03 2311.05 1221.14 2261.51 1296.25 2242.09 1359.34 2217.8 1415.41 2217.8 1415.41 2246.94 1477.5 2281.91 1505.54 2281.91 1568.63 2276.08 1636.73 2246.94 1789.94 2217.8 1893.09 2270.25 1937.15 2286.77 2002.24 2246.94 2067.33 2246.94 2108.39 2286.77 2168.47 2283.85 2224.55 2261.51 2281.64 2242.09 2316.68 2217.8 2389.79 2192.55 2408.81 2217.8 2436.85 2246.94 2473.91 2261.51 2568.04 2270.25 2633.13 2217.8 2658.16 2161.46 2711.24 2127.47 2768.32 2127.47 2895.5 2108.04 2945.57 2058.5 2989.63 2088.61 3014.67 2124.55 3026.68 2161.46 3026.68 2213.92 3067.74 2211 3117.81 2211 3154.86 2184.78 3195.92 2127.47 3251 2098.97 3251 2584 411 2584 411 2124.55"/><ellipse class="cls-2" cx="1463.15" cy="460.48" rx="1.36" ry="2.04" transform="translate(493.9 1649.35) rotate(-68.28)"/><ellipse class="cls-2" cx="1405.15" cy="482.48" rx="1.36" ry="2.04" transform="translate(436.92 1609.33) rotate(-68.28)"/><ellipse class="cls-2" cx="1478.15" cy="457.48" rx="1.36" ry="2.04" transform="translate(506.13 1661.4) rotate(-68.28)"/><ellipse class="cls-2" cx="1576.15" cy="399.48" rx="1.36" ry="2.04" transform="translate(621.75 1715.9) rotate(-68.28)"/><ellipse class="cls-2" cx="1636.15" cy="372.48" rx="1.36" ry="2.04" transform="translate(684.63 1754.63) rotate(-68.28)"/><ellipse class="cls-2" cx="1608.15" cy="302.48" rx="1.36" ry="2.04" transform="translate(732.02 1684.53) rotate(-68.28)"/><ellipse class="cls-2" cx="1544.15" cy="284.48" rx="1.36" ry="2.04" transform="translate(708.43 1613.73) rotate(-68.28)"/><ellipse class="cls-2" cx="1493.15" cy="297.48" rx="1.36" ry="2.04" transform="translate(664.22 1574.54) rotate(-68.28)"/><ellipse class="cls-2" cx="1420.15" cy="308.48" rx="1.36" ry="2.04" transform="translate(608.02 1513.65) rotate(-68.28)"/><ellipse class="cls-2" cx="1349.15" cy="317.48" rx="1.36" ry="2.04" transform="translate(554.93 1453.36) rotate(-68.28)"/><ellipse class="cls-2" cx="1298.15" cy="317.48" rx="1.36" ry="2.04" transform="translate(522.81 1405.98) rotate(-68.28)"/><ellipse class="cls-2" cx="1235.15" cy="260.48" rx="1.36" ry="2.04" transform="translate(536.07 1311.55) rotate(-68.28)"/><ellipse class="cls-2" cx="1200.15" cy="157.48" rx="1.36" ry="2.04" transform="translate(609.71 1214.15) rotate(-68.28)"/><ellipse class="cls-2" cx="1199.15" cy="85.48" rx="1.36" ry="2.04" transform="translate(675.97 1167.87) rotate(-68.28)"/><ellipse class="cls-2" cx="1251.15" cy="81.48" rx="1.36" ry="2.04" transform="translate(712.44 1213.65) rotate(-68.28)"/><ellipse class="cls-2" cx="1251.15" cy="81.48" rx="1.36" ry="2.04" transform="translate(712.44 1213.65) rotate(-68.28)"/><ellipse class="cls-2" cx="1334.15" cy="150.48" rx="1.36" ry="2.04" transform="translate(700.63 1334.23) rotate(-68.28)"/><ellipse class="cls-2" cx="1389.15" cy="125.48" rx="1.36" ry="2.04" transform="translate(758.5 1369.57) rotate(-68.28)"/><ellipse class="cls-2" cx="1519.15" cy="112.48" rx="1.36" ry="2.04" transform="translate(852.47 1482.16) rotate(-68.28)"/><ellipse class="cls-2" cx="1519.15" cy="112.48" rx="1.36" ry="2.04" transform="translate(852.47 1482.16) rotate(-68.28)"/><ellipse class="cls-2" cx="1664.15" cy="106.48" rx="1.36" ry="2.04" transform="translate(949.38 1613.08) rotate(-68.28)"/><ellipse class="cls-2" cx="1708.15" cy="92.48" rx="1.36" ry="2.04" transform="translate(990.11 1645.14) rotate(-68.28)"/><ellipse class="cls-2" cx="1788.15" cy="110.48" rx="1.36" ry="2.04" transform="translate(1023.78 1730.8) rotate(-68.28)"/><ellipse class="cls-2" cx="1826.15" cy="151.48" rx="1.36" ry="2.04" transform="translate(1009.63 1791.93) rotate(-68.28)"/><ellipse class="cls-2" cx="1800.15" cy="234.48" rx="1.36" ry="2.04" transform="translate(916.14 1820.06) rotate(-68.28)"/><ellipse class="cls-2" cx="1847.15" cy="233.48" rx="1.36" ry="2.04" transform="translate(946.68 1863.09) rotate(-68.28)"/><ellipse class="cls-2" cx="1903.15" cy="233.48" rx="1.36" ry="2.04" transform="translate(981.95 1915.12) rotate(-68.28)"/><ellipse class="cls-2" cx="1960.15" cy="226.48" rx="1.36" ry="2.04" transform="translate(1024.36 1963.66) rotate(-68.28)"/><ellipse class="cls-2" cx="2023.15" cy="145.48" rx="1.36" ry="2.04" transform="translate(1139.3 1971.16) rotate(-68.28)"/><ellipse class="cls-2" cx="1870.15" cy="234.48" rx="1.36" ry="2.04" transform="translate(960.24 1885.09) rotate(-68.28)"/><ellipse class="cls-2" cx="1781.15" cy="326.48" rx="1.36" ry="2.04" transform="translate(818.7 1860.36) rotate(-68.28)"/><ellipse class="cls-2" cx="1760.15" cy="347.48" rx="1.36" ry="2.04" transform="translate(785.97 1854.08) rotate(-68.28)"/><ellipse class="cls-2" cx="1752.15" cy="357.48" rx="1.36" ry="2.04" transform="translate(771.64 1852.95) rotate(-68.28)"/><ellipse class="cls-2" cx="1862.15" cy="354.48" rx="1.36" ry="2.04" transform="translate(843.72 1953.25) rotate(-68.28)"/><ellipse class="cls-2" cx="1939.15" cy="337.48" rx="1.36" ry="2.04" transform="translate(908.01 2014.07) rotate(-68.28)"/><ellipse class="cls-2" cx="2080.15" cy="321.48" rx="1.36" ry="2.04" transform="translate(1011.7 2134.99) rotate(-68.28)"/><ellipse class="cls-2" cx="2169.15" cy="289.48" rx="1.36" ry="2.04" transform="translate(1097.49 2197.51) rotate(-68.28)"/><ellipse class="cls-2" cx="2169.15" cy="289.48" rx="1.36" ry="2.04" transform="translate(1097.49 2197.51) rotate(-68.28)"/><ellipse class="cls-2" cx="2307.15" cy="262.48" rx="1.36" ry="2.04" transform="translate(1209.51 2308.7) rotate(-68.28)"/><ellipse class="cls-2" cx="2367.15" cy="220.48" rx="1.36" ry="2.04" transform="translate(1286.32 2337.99) rotate(-68.28)"/><ellipse class="cls-2" cx="2418.15" cy="233.48" rx="1.36" ry="2.04" transform="translate(1306.37 2393.56) rotate(-68.28)"/><ellipse class="cls-2" cx="2432.15" cy="251.48" rx="1.36" ry="2.04" transform="translate(1298.47 2417.9) rotate(-68.28)"/><ellipse class="cls-2" cx="2432.15" cy="251.48" rx="1.36" ry="2.04" transform="translate(1298.47 2417.9) rotate(-68.28)"/><ellipse class="cls-2" cx="2391.15" cy="445.48" rx="1.36" ry="2.04" transform="translate(1092.41 2502.02) rotate(-68.28)"/><ellipse class="cls-2" cx="2195.15" cy="449.48" rx="1.36" ry="2.04" transform="translate(965.23 2322.45) rotate(-68.28)"/><ellipse class="cls-2" cx="2195.15" cy="449.48" rx="1.36" ry="2.04" transform="translate(965.23 2322.45) rotate(-68.28)"/><ellipse class="cls-2" cx="2153.15" cy="445.48" rx="1.36" ry="2.04" transform="translate(942.49 2280.92) rotate(-68.28)"/><ellipse class="cls-2" cx="2179.15" cy="340.48" rx="1.36" ry="2.04" transform="translate(1056.41 2238.93) rotate(-68.28)"/><ellipse class="cls-2" cx="2179.15" cy="340.48" rx="1.36" ry="2.04" transform="translate(1056.41 2238.93) rotate(-68.28)"/><ellipse class="cls-2" cx="2367.15" cy="251.48" rx="1.36" ry="2.04" transform="translate(1257.52 2357.52) rotate(-68.28)"/><ellipse class="cls-2" cx="2451.15" cy="204.48" rx="1.36" ry="2.04" transform="translate(1354.1 2405.94) rotate(-68.28)"/><ellipse class="cls-2" cx="2448.15" cy="160.48" rx="1.36" ry="2.04" transform="translate(1393.09 2375.44) rotate(-68.28)"/><ellipse class="cls-2" cx="2316.15" cy="147.48" rx="1.36" ry="2.04" transform="translate(1322.01 2244.62) rotate(-68.28)"/><ellipse class="cls-2" cx="2221.15" cy="190.48" rx="1.36" ry="2.04" transform="translate(1222.22 2183.45) rotate(-68.28)"/><ellipse class="cls-2" cx="2146.15" cy="229.48" rx="1.36" ry="2.04" transform="translate(1138.74 2138.35) rotate(-68.28)"/><ellipse class="cls-2" cx="2146.15" cy="229.48" rx="1.36" ry="2.04" transform="translate(1138.74 2138.35) rotate(-68.28)"/><ellipse class="cls-2" cx="2102.15" cy="151.48" rx="1.36" ry="2.04" transform="translate(1183.49 2048.33) rotate(-68.28)"/><ellipse class="cls-2" cx="2091.15" cy="160.48" rx="1.36" ry="2.04" transform="translate(1168.2 2043.79) rotate(-68.28)"/><ellipse class="cls-2" cx="2256.15" cy="101.48" rx="1.36" ry="2.04" transform="translate(1326.95 2159.91) rotate(-68.28)"/><ellipse class="cls-2" cx="2080.15" cy="99.48" rx="1.36" ry="2.04" transform="translate(1217.94 1995.14) rotate(-68.28)"/><ellipse class="cls-2" cx="2107.15" cy="35.48" rx="1.36" ry="2.04" transform="translate(1294.4 1979.91) rotate(-68.28)"/><ellipse class="cls-2" cx="2041.15" cy="47.48" rx="1.36" ry="2.04" transform="translate(1241.68 1926.15) rotate(-68.28)"/><ellipse class="cls-2" cx="1866.15" cy="54.48" rx="1.36" ry="2.04" transform="translate(1124.94 1767.99) rotate(-68.28)"/><ellipse class="cls-2" cx="1740.15" cy="70.48" rx="1.36" ry="2.04" transform="translate(1030.7 1661.01) rotate(-68.28)"/><ellipse class="cls-2" cx="1544.15" cy="52.48" rx="1.36" ry="2.04" transform="translate(923.96 1467.59) rotate(-68.28)"/><ellipse class="cls-2" cx="1430.15" cy="59.48" rx="1.36" ry="2.04" transform="translate(845.64 1366.09) rotate(-68.28)"/><ellipse class="cls-2" cx="1500.15" cy="154.48" rx="1.36" ry="2.04" transform="translate(801.48 1490.96) rotate(-68.28)"/><ellipse class="cls-2" cx="1620.15" cy="153.48" rx="1.36" ry="2.04" transform="translate(878 1601.81) rotate(-68.28)"/><ellipse class="cls-2" cx="1654.15" cy="179.48" rx="1.36" ry="2.04" transform="translate(875.27 1649.78) rotate(-68.28)"/><ellipse class="cls-2" cx="1663.15" cy="230.48" rx="1.36" ry="2.04" transform="translate(833.56 1690.27) rotate(-68.28)"/><ellipse class="cls-2" cx="1625.15" cy="256.48" rx="1.36" ry="2.04" transform="translate(785.46 1671.34) rotate(-68.28)"/><ellipse class="cls-2" cx="1683.15" cy="252.48" rx="1.36" ry="2.04" transform="translate(825.72 1722.7) rotate(-68.28)"/><ellipse class="cls-2" cx="1674.15" cy="299.48" rx="1.36" ry="2.04" transform="translate(776.38 1743.95) rotate(-68.28)"/><ellipse class="cls-2" cx="1730.15" cy="186.48" rx="1.36" ry="2.04" transform="translate(916.64 1724.79) rotate(-68.28)"/><ellipse class="cls-2" cx="1554.15" cy="189.48" rx="1.36" ry="2.04" transform="translate(802.98 1563.18) rotate(-68.28)"/><ellipse class="cls-2" cx="1459.15" cy="218.48" rx="1.36" ry="2.04" transform="translate(716.2 1493.19) rotate(-68.28)"/><ellipse class="cls-2" cx="2417.15" cy="40.48" rx="1.36" ry="2.04" transform="translate(1485.04 2271.05) rotate(-68.28)"/><ellipse class="cls-2" cx="2248.15" cy="105.48" rx="1.36" ry="2.04" transform="translate(1318.19 2154.99) rotate(-68.28)"/><ellipse class="cls-2" cx="2494.15" cy="91.48" rx="1.36" ry="2.04" transform="translate(1486.17 2374.71) rotate(-68.28)"/><ellipse class="cls-2" cx="2582.15" cy="91.48" rx="1.36" ry="2.04" transform="translate(1541.6 2456.46) rotate(-68.28)"/><ellipse class="cls-2" cx="2603.15" cy="142.48" rx="1.36" ry="2.04" transform="translate(1507.45 2508.1) rotate(-68.28)"/><ellipse class="cls-2" cx="2575.15" cy="226.48" rx="1.36" ry="2.04" transform="translate(1411.77 2535) rotate(-68.28)"/><ellipse class="cls-2" cx="2531.15" cy="336.48" rx="1.36" ry="2.04" transform="translate(1281.87 2563.42) rotate(-68.28)"/><ellipse class="cls-2" cx="2510.15" cy="357.48" rx="1.36" ry="2.04" transform="translate(1249.13 2557.14) rotate(-68.28)"/><ellipse class="cls-2" cx="2395.15" cy="310.48" rx="1.36" ry="2.04" transform="translate(1220.35 2420.69) rotate(-68.28)"/><ellipse class="cls-2" cx="2289.15" cy="284.48" rx="1.36" ry="2.04" transform="translate(1177.73 2305.84) rotate(-68.28)"/><ellipse class="cls-2" cx="2326.15" cy="376.48" rx="1.36" ry="2.04" transform="translate(1115.57 2398.17) rotate(-68.28)"/><ellipse class="cls-2" cx="2520.15" cy="396.48" rx="1.36" ry="2.04" transform="translate(1219.2 2590.99) rotate(-68.28)"/><ellipse class="cls-2" cx="2563.15" cy="391.48" rx="1.36" ry="2.04" transform="translate(1250.93 2627.79) rotate(-68.28)"/><ellipse class="cls-2" cx="2644.15" cy="425.48" rx="1.36" ry="2.04" transform="translate(1270.37 2724.46) rotate(-68.28)"/><ellipse class="cls-2" cx="2695.15" cy="467.48" rx="1.36" ry="2.04" transform="translate(1263.48 2798.3) rotate(-68.28)"/><ellipse class="cls-2" cx="2611.15" cy="321.48" rx="1.36" ry="2.04" transform="translate(1346.2 2628.29) rotate(-68.28)"/><ellipse class="cls-2" cx="2626.15" cy="260.48" rx="1.36" ry="2.04" transform="translate(1412.31 2603.8) rotate(-68.28)"/><ellipse class="cls-2" cx="3036.15" cy="85.48" rx="1.36" ry="2.04" transform="translate(1833.16 2874.45) rotate(-68.28)"/><ellipse class="cls-2" cx="3079.15" cy="69.48" rx="1.36" ry="2.04" transform="translate(1875.12 2904.32) rotate(-68.28)"/><ellipse class="cls-2" cx="3102.15" cy="72.48" rx="1.36" ry="2.04" transform="translate(1886.82 2927.58) rotate(-68.28)"/><ellipse class="cls-2" cx="3128.15" cy="113.48" rx="1.36" ry="2.04" transform="translate(1865.11 2977.56) rotate(-68.28)"/><ellipse class="cls-2" cx="3119.15" cy="208.48" rx="1.36" ry="2.04" transform="translate(1771.18 3029.04) rotate(-68.28)"/><ellipse class="cls-2" cx="3150.15" cy="196.48" rx="1.36" ry="2.04" transform="translate(1801.86 3050.28) rotate(-68.28)"/><ellipse class="cls-2" cx="3181.15" cy="240.48" rx="1.36" ry="2.04" transform="translate(1780.51 3106.8) rotate(-68.28)"/><ellipse class="cls-2" cx="3168.15" cy="268.48" rx="1.36" ry="2.04" transform="translate(1746.31 3112.36) rotate(-68.28)"/><ellipse class="cls-2" cx="3186.15" cy="339.48" rx="1.36" ry="2.04" transform="translate(1691.69 3173.81) rotate(-68.28)"/><ellipse class="cls-2" cx="3218.15" cy="380.48" rx="1.36" ry="2.04" transform="translate(1673.76 3229.36) rotate(-68.28)"/><ellipse class="cls-2" cx="3200.15" cy="421.48" rx="1.36" ry="2.04" transform="translate(1624.33 3238.47) rotate(-68.28)"/><ellipse class="cls-2" cx="3157.15" cy="441.48" rx="1.36" ry="2.04" transform="translate(1578.66 3211.12) rotate(-68.28)"/><ellipse class="cls-2" cx="3091.15" cy="419.48" rx="1.36" ry="2.04" transform="translate(1557.52 3135.95) rotate(-68.28)"/><ellipse class="cls-2" cx="3104.15" cy="417.48" rx="1.36" ry="2.04" transform="translate(1567.57 3146.76) rotate(-68.28)"/><ellipse class="cls-2" cx="3055.15" cy="518.48" rx="1.36" ry="2.04" transform="translate(1442.87 3164.86) rotate(-68.28)"/><ellipse class="cls-2" cx="2991.15" cy="577.48" rx="1.36" ry="2.04" transform="translate(1347.75 3142.57) rotate(-68.28)"/><ellipse class="cls-2" cx="2991.15" cy="577.48" rx="1.36" ry="2.04" transform="translate(1347.75 3142.57) rotate(-68.28)"/><ellipse class="cls-2" cx="2904.15" cy="491.48" rx="1.36" ry="2.04" transform="translate(1372.84 3007.58) rotate(-68.28)"/><ellipse class="cls-2" cx="2901.15" cy="491.48" rx="1.36" ry="2.04" transform="translate(1370.95 3004.79) rotate(-68.28)"/><ellipse class="cls-2" cx="2791.15" cy="502.48" rx="1.36" ry="2.04" transform="translate(1291.43 2909.53) rotate(-68.28)"/><ellipse class="cls-2" cx="2791.15" cy="502.48" rx="1.36" ry="2.04" transform="translate(1291.43 2909.53) rotate(-68.28)"/><ellipse class="cls-2" cx="2744.15" cy="445.48" rx="1.36" ry="2.04" transform="translate(1314.78 2829.96) rotate(-68.28)"/><ellipse class="cls-2" cx="2724.15" cy="409.48" rx="1.36" ry="2.04" transform="translate(1335.63 2788.7) rotate(-68.28)"/><ellipse class="cls-2" cx="2698.15" cy="240.48" rx="1.36" ry="2.04" transform="translate(1476.25 2658.09) rotate(-68.28)"/><ellipse class="cls-2" cx="2644.15" cy="147.48" rx="1.36" ry="2.04" transform="translate(1528.63 2549.34) rotate(-68.28)"/><ellipse class="cls-2" cx="2693.15" cy="62.48" rx="1.36" ry="2.04" transform="translate(1638.46 2541.31) rotate(-68.28)"/><ellipse class="cls-2" cx="2750.15" cy="46.48" rx="1.36" ry="2.04" transform="translate(1689.23 2584.19) rotate(-68.28)"/><ellipse class="cls-2" cx="2782.15" cy="47.48" rx="1.36" ry="2.04" transform="translate(1708.46 2614.55) rotate(-68.28)"/><polygon class="cls-6" points="411 2584 411 2312.64 484.1 2351.81 525.16 2357.54 568.22 2325.06 603.27 2286.84 684.38 2312.64 698.4 2343.21 698.4 2377.61 715.43 2413.92 765.5 2413.92 809.56 2397.68 830.59 2357.54 993.82 2343.21 1039.89 2351.81 1067.92 2364.23 1086.95 2413.92 1168.07 2413.92 1215.13 2377.61 1277.22 2343.21 1355.33 2343.21 1402.4 2364.23 1457.47 2397.68 1505.54 2397.68 1564.63 2351.81 1664.77 2343.21 1699.82 2312.64 1761.9 2312.64 1831 2351.81 1871.06 2377.61 1934.14 2413.92 1974.2 2397.68 2021.27 2377.61 2083.36 2377.61 2115.4 2413.92 2168.47 2413.92 2244.58 2377.61 2262.61 2343.21 2316.68 2315.5 2373.76 2286.84 2436.85 2252.44 2473.91 2266.77 2473.91 2315.5 2492.93 2343.21 2529.98 2357.54 2658.16 2351.81 2699.22 2325.06 2749.29 2275.37 2780.34 2252.44 2892.49 2275.37 3036.7 2304.03 3083.76 2304.03 3126.82 2275.37 3189.91 2252.44 3251 2251.09 3251 2584 411 2584"/></g></svg>