<svg id="real_background" xmlns="http://www.w3.org/2000/svg" xmlns:xlink="http://www.w3.org/1999/xlink" viewBox="0 0 3670 2531"><defs><style>.cls-1{fill:url(#linear-gradient);}.cls-2{fill:url(#linear-gradient-2);}.cls-3{fill:#dbd2d2;}.cls-4{fill:none;}.cls-5{fill:#383838;}.cls-6{fill:#565656;}</style><linearGradient id="linear-gradient" x1="-1911" y1="-109" x2="-683.25" y2="-109" gradientTransform="translate(1767 3217) rotate(90)" gradientUnits="userSpaceOnUse"><stop offset="0" stop-color="blue" stop-opacity="0.6"/><stop offset="0.13" stop-color="#33f" stop-opacity="0.68"/><stop offset="0.31" stop-color="#7171ff" stop-opacity="0.78"/><stop offset="0.48" stop-color="#a3a3ff" stop-opacity="0.86"/><stop offset="0.64" stop-color="#cbcbff" stop-opacity="0.92"/><stop offset="0.78" stop-color="#e8e8ff" stop-opacity="0.96"/><stop offset="0.91" stop-color="#f9f9ff" stop-opacity="0.99"/><stop offset="1" stop-color="#fff"/></linearGradient><linearGradient id="linear-gradient-2" x1="669" y1="4433" x2="1967" y2="4433" gradientTransform="translate(6309 -661) rotate(90)" gradientUnits="userSpaceOnUse"><stop offset="0" stop-color="blue" stop-opacity="0.6"/><stop offset="0.05" stop-color="#0000c5" stop-opacity="0.69"/><stop offset="0.11" stop-color="#000090" stop-opacity="0.77"/><stop offset="0.17" stop-color="#000063" stop-opacity="0.84"/><stop offset="0.25" stop-color="#00003e" stop-opacity="0.9"/><stop offset="0.33" stop-color="#002" stop-opacity="0.95"/><stop offset="0.44" stop-color="#00000e" stop-opacity="0.98"/><stop offset="0.59" stop-color="#000003"/><stop offset="1"/></linearGradient></defs><title>backbackground</title><rect class="cls-1" x="456" y="1306" width="2840" height="1227.75"/><rect class="cls-2" x="456" y="8" width="2840" height="1298" transform="translate(3752 1314) rotate(180)"/><circle class="cls-3" cx="2982.91" cy="244.32" r="213.09"/><ellipse class="cls-3" cx="514.62" cy="60.25" rx="2.04" ry="1.36"/><ellipse class="cls-3" cx="540.45" cy="160.84" rx="2.04" ry="1.36"/><ellipse class="cls-3" cx="723.96" cy="50.73" rx="2.04" ry="1.36"/><ellipse class="cls-3" cx="747.07" cy="35.78" rx="2.04" ry="1.36" transform="translate(107.12 422.9) rotate(-33.91)"/><ellipse class="cls-3" cx="836.79" cy="164.92" rx="2.04" ry="1.36"/><ellipse class="cls-3" cx="776.98" cy="188.03" rx="2.04" ry="1.36"/><ellipse class="cls-3" cx="802.8" cy="193.47" rx="2.04" ry="1.36"/><ellipse class="cls-3" cx="802.8" cy="133.66" rx="2.04" ry="1.36"/><ellipse class="cls-3" cx="692.7" cy="30.34" rx="2.04" ry="1.36" transform="translate(100.91 391.64) rotate(-33.91)"/><ellipse class="cls-3" cx="876.21" cy="64.33" rx="1.36" ry="2.04" transform="translate(492.2 854.53) rotate(-68.28)"/><ellipse class="cls-3" cx="930.59" cy="45.3" rx="1.36" ry="2.04" transform="translate(544.13 893.05) rotate(-68.28)"/><ellipse class="cls-3" cx="892.52" cy="101.03" rx="1.36" ry="2.04" transform="translate(468.37 892.8) rotate(-68.28)"/><ellipse class="cls-3" cx="694.05" cy="87.44" rx="1.36" ry="2.04" transform="translate(355.98 699.86) rotate(-68.28)"/><ellipse class="cls-3" cx="1062.45" cy="121.42" rx="1.36" ry="2.04" transform="translate(556.47 1063.51) rotate(-68.28)"/><ellipse class="cls-3" cx="1080.12" cy="99.67" rx="1.36" ry="2.04" transform="translate(587.81 1066.22) rotate(-68.28)"/><ellipse class="cls-3" cx="1093.71" cy="77.92" rx="1.36" ry="2.04" transform="translate(616.58 1065.15) rotate(-68.28)"/><ellipse class="cls-3" cx="925.15" cy="159.48" rx="1.36" ry="2.04" transform="translate(434.62 959.93) rotate(-68.28)"/><ellipse class="cls-3" cx="941.46" cy="132.3" rx="1.36" ry="2.04" transform="translate(470.16 957.96) rotate(-68.28)"/><ellipse class="cls-3" cx="947.25" cy="118.35" rx="2.58" ry="3.6" transform="translate(486.76 954.56) rotate(-68.28)"/><ellipse class="cls-3" cx="857.18" cy="208.42" rx="1.36" ry="2.04" transform="translate(346.34 927.62) rotate(-68.28)"/><ellipse class="cls-3" cx="1096.43" cy="159.48" rx="1.36" ry="2.04" transform="translate(542.52 1119.06) rotate(-68.28)"/><ellipse class="cls-3" cx="1066.52" cy="88.8" rx="1.36" ry="2.04" transform="translate(589.35 1046.74) rotate(-68.28)"/><ellipse class="cls-3" cx="677.74" cy="73.84" rx="1.36" ry="2.04" transform="translate(358.33 676.14) rotate(-68.28)"/><ellipse class="cls-3" cx="854.46" cy="67.05" rx="1.36" ry="2.04" transform="translate(475.97 836.03) rotate(-68.28)"/><ellipse class="cls-3" cx="995.84" cy="30.34" rx="1.36" ry="2.04" transform="translate(599.12 944.25) rotate(-68.28)"/><ellipse class="cls-3" cx="1070.6" cy="28.98" rx="1.36" ry="2.04" transform="translate(647.48 1012.85) rotate(-68.28)"/><ellipse class="cls-3" cx="1164.4" cy="48.02" rx="1.36" ry="2.04" transform="translate(688.89 1111.98) rotate(-68.28)"/><ellipse class="cls-3" cx="1248.68" cy="177.16" rx="1.36" ry="2.04" transform="translate(622.01 1271.63) rotate(-68.28)"/><ellipse class="cls-3" cx="1192.95" cy="167.64" rx="1.36" ry="2.04" transform="translate(595.74 1213.86) rotate(-68.28)"/><ellipse class="cls-3" cx="1288.1" cy="175.8" rx="1.36" ry="2.04" transform="translate(648.11 1307.4) rotate(-68.28)"/><ellipse class="cls-3" cx="1332.96" cy="170.36" rx="1.36" ry="2.04" transform="translate(681.42 1345.64) rotate(-68.28)"/><ellipse class="cls-3" cx="1366.95" cy="215.22" rx="1.36" ry="2.04" transform="translate(661.15 1405.48) rotate(-68.28)"/><ellipse class="cls-3" cx="1394.13" cy="189.39" rx="1.36" ry="2.04" transform="translate(702.27 1414.46) rotate(-68.28)"/><ellipse class="cls-3" cx="1354.71" cy="213.86" rx="1.36" ry="2.04" transform="translate(654.7 1393.25) rotate(-68.28)"/><ellipse class="cls-3" cx="1274.51" cy="226.09" rx="1.36" ry="2.04" transform="translate(592.82 1326.45) rotate(-68.28)"/><ellipse class="cls-3" cx="1220.13" cy="228.81" rx="1.36" ry="2.04" transform="translate(556.04 1277.65) rotate(-68.28)"/><ellipse class="cls-3" cx="1179.35" cy="111.91" rx="1.36" ry="2.04" transform="translate(638.95 1166.12) rotate(-68.28)"/><ellipse class="cls-3" cx="1033.9" cy="82" rx="1.36" ry="2.04" transform="translate(575.11 1012.15) rotate(-68.28)"/><ellipse class="cls-3" cx="680.46" cy="149.97" rx="1.36" ry="2.04" transform="translate(289.33 726.62) rotate(-68.28)"/><ellipse class="cls-3" cx="658.71" cy="135.02" rx="1.36" ry="2.04" transform="translate(289.52 697) rotate(-68.28)"/><ellipse class="cls-3" cx="642.4" cy="92.88" rx="1.36" ry="2.04" transform="translate(318.39 655.3) rotate(-68.28)"/><ellipse class="cls-3" cx="598.9" cy="45.3" rx="1.36" ry="2.04" transform="translate(335.19 584.91) rotate(-68.28)"/><ellipse class="cls-3" cx="552.68" cy="12.67" rx="1.36" ry="2.04" transform="translate(336.38 521.43) rotate(-68.28)"/><ellipse class="cls-3" cx="602.98" cy="24.91" rx="1.36" ry="2.04" transform="translate(356.7 575.86) rotate(-68.28)"/><ellipse class="cls-3" cx="630.16" cy="4.52" rx="1.36" ry="2.04" transform="translate(392.77 588.27) rotate(-68.28)"/><ellipse class="cls-3" cx="999.91" cy="83.36" rx="1.36" ry="2.04" transform="translate(552.44 981.44) rotate(-68.28)"/><ellipse class="cls-3" cx="999.91" cy="128.22" rx="1.36" ry="2.04" transform="translate(510.77 1009.7) rotate(-68.28)"/><ellipse class="cls-3" cx="1002.63" cy="174.44" rx="1.36" ry="2.04" transform="translate(469.54 1041.34) rotate(-68.28)"/><rect class="cls-4" x="465" y="2088.44" width="973.31" height="473.06" rx="3.88"/><ellipse class="cls-3" cx="1032.54" cy="321.25" rx="1.36" ry="2.04" transform="translate(351.99 1161.6) rotate(-68.28)"/><ellipse class="cls-3" cx="1028.46" cy="300.86" rx="1.36" ry="2.04" transform="translate(368.36 1144.97) rotate(-68.28)"/><ellipse class="cls-3" cx="1086.91" cy="291.34" rx="1.36" ry="2.04" transform="translate(414.03 1193.28) rotate(-68.28)"/><ellipse class="cls-3" cx="1122.26" cy="295.42" rx="1.36" ry="2.04" transform="translate(432.5 1228.68) rotate(-68.28)"/><ellipse class="cls-3" cx="1124.98" cy="349.8" rx="1.36" ry="2.04" transform="translate(383.7 1265.46) rotate(-68.28)"/><ellipse class="cls-3" cx="1148.09" cy="250.56" rx="1.36" ry="2.04" transform="translate(490.45 1224.42) rotate(-68.28)"/><ellipse class="cls-3" cx="1096.43" cy="245.13" rx="1.36" ry="2.04" transform="translate(462.96 1173) rotate(-68.28)"/><ellipse class="cls-3" cx="1029.82" cy="250.56" rx="1.36" ry="2.04" transform="translate(415.95 1114.55) rotate(-68.28)"/><ellipse class="cls-3" cx="989.04" cy="260.08" rx="1.36" ry="2.04" transform="translate(381.42 1082.66) rotate(-68.28)"/><ellipse class="cls-3" cx="970.01" cy="207.06" rx="1.36" ry="2.04" transform="translate(418.68 1031.58) rotate(-68.28)"/><ellipse class="cls-3" cx="937.38" cy="268.23" rx="1.36" ry="2.04" transform="translate(341.3 1039.81) rotate(-68.28)"/><ellipse class="cls-3" cx="911.55" cy="322.61" rx="1.36" ry="2.04" transform="translate(274.52 1050.06) rotate(-68.28)"/><ellipse class="cls-3" cx="887.09" cy="359.31" rx="1.36" ry="2.04" transform="translate(225 1050.45) rotate(-68.28)"/><ellipse class="cls-3" cx="880.29" cy="363.39" rx="1.36" ry="2.04" transform="translate(216.93 1046.71) rotate(-68.28)"/><ellipse class="cls-3" cx="840.87" cy="360.67" rx="1.36" ry="2.04" transform="translate(194.63 1008.37) rotate(-68.28)"/><ellipse class="cls-3" cx="825.91" cy="357.95" rx="1.36" ry="2.04" transform="translate(187.73 992.77) rotate(-68.28)"/><ellipse class="cls-3" cx="810.96" cy="325.33" rx="1.36" ry="2.04" transform="translate(208.62 958.32) rotate(-68.28)"/><ellipse class="cls-3" cx="828.63" cy="283.19" rx="1.36" ry="2.04" transform="translate(258.9 948.2) rotate(-68.28)"/><ellipse class="cls-3" cx="828.63" cy="281.83" rx="1.36" ry="2.04" transform="translate(260.17 947.34) rotate(-68.28)"/><ellipse class="cls-3" cx="798.73" cy="283.19" rx="1.36" ry="2.04" transform="translate(240.06 920.41) rotate(-68.28)"/><ellipse class="cls-3" cx="798.73" cy="283.19" rx="1.36" ry="2.04" transform="translate(240.06 920.41) rotate(-68.28)"/><ellipse class="cls-3" cx="734.84" cy="285.91" rx="1.36" ry="2.04" transform="translate(197.29 862.77) rotate(-68.28)"/><ellipse class="cls-3" cx="689.98" cy="291.34" rx="1.36" ry="2.04" transform="translate(163.98 824.52) rotate(-68.28)"/><ellipse class="cls-3" cx="689.98" cy="291.34" rx="1.36" ry="2.04" transform="translate(163.98 824.52) rotate(-68.28)"/><ellipse class="cls-3" cx="664.15" cy="270.95" rx="1.36" ry="2.04" transform="translate(166.65 787.68) rotate(-68.28)"/><ellipse class="cls-3" cx="669.59" cy="260.08" rx="1.36" ry="2.04" transform="translate(180.18 785.88) rotate(-68.28)"/><ellipse class="cls-3" cx="692.7" cy="215.22" rx="1.36" ry="2.04" transform="translate(236.41 779.09) rotate(-68.28)"/><ellipse class="cls-3" cx="699.49" cy="208.42" rx="1.36" ry="2.04" transform="translate(247.01 781.13) rotate(-68.28)"/><ellipse class="cls-3" cx="699.49" cy="208.42" rx="1.36" ry="2.04" transform="translate(247.01 781.13) rotate(-68.28)"/><ellipse class="cls-3" cx="645.12" cy="201.63" rx="1.36" ry="2.04" transform="translate(219.07 726.33) rotate(-68.28)"/><ellipse class="cls-3" cx="645.12" cy="201.63" rx="1.36" ry="2.04" transform="translate(219.07 726.33) rotate(-68.28)"/><ellipse class="cls-3" cx="594.82" cy="197.55" rx="1.36" ry="2.04" transform="translate(191.18 677.03) rotate(-68.28)"/><ellipse class="cls-3" cx="543.16" cy="238.33" rx="1.36" ry="2.04" transform="translate(120.75 654.73) rotate(-68.28)"/><ellipse class="cls-3" cx="540.45" cy="243.77" rx="1.36" ry="2.04" transform="translate(113.99 655.63) rotate(-68.28)"/><ellipse class="cls-3" cx="532.29" cy="280.47" rx="1.36" ry="2.04" transform="translate(74.75 671.18) rotate(-68.28)"/><ellipse class="cls-3" cx="543.16" cy="309.02" rx="1.36" ry="2.04" transform="translate(55.08 699.26) rotate(-68.28)"/><ellipse class="cls-3" cx="560.84" cy="336.2" rx="1.36" ry="2.04" transform="translate(40.96 732.81) rotate(-68.28)"/><ellipse class="cls-3" cx="581.23" cy="337.56" rx="1.36" ry="2.04" transform="translate(52.54 752.61) rotate(-68.28)"/><ellipse class="cls-3" cx="581.23" cy="337.56" rx="1.36" ry="2.04" transform="translate(52.54 752.61) rotate(-68.28)"/><ellipse class="cls-3" cx="641.04" cy="330.77" rx="1.36" ry="2.04" transform="translate(96.53 803.89) rotate(-68.28)"/><ellipse class="cls-3" cx="688.62" cy="319.89" rx="1.36" ry="2.04" transform="translate(136.6 841.24) rotate(-68.28)"/><ellipse class="cls-3" cx="714.45" cy="309.02" rx="1.36" ry="2.04" transform="translate(162.98 858.38) rotate(-68.28)"/><ellipse class="cls-3" cx="722.6" cy="328.05" rx="1.36" ry="2.04" transform="translate(150.44 877.95) rotate(-68.28)"/><ellipse class="cls-3" cx="729.4" cy="363.39" rx="1.36" ry="2.04" transform="translate(121.88 906.53) rotate(-68.28)"/><ellipse class="cls-3" cx="744.35" cy="379.7" rx="1.36" ry="2.04" transform="translate(116.15 930.7) rotate(-68.28)"/><ellipse class="cls-3" cx="748.43" cy="379.7" rx="1.36" ry="2.04" transform="translate(118.72 934.48) rotate(-68.28)"/><ellipse class="cls-3" cx="804.16" cy="368.83" rx="1.36" ry="2.04" transform="translate(163.93 979.41) rotate(-68.28)"/><ellipse class="cls-3" cx="1158.96" cy="473.5" rx="1.36" ry="2.04" transform="translate(290.19 1374.96) rotate(-68.28)"/><ellipse class="cls-3" cx="1107.3" cy="515.64" rx="1.36" ry="2.04" transform="translate(218.5 1353.51) rotate(-68.28)"/><ellipse class="cls-3" cx="1107.3" cy="515.64" rx="1.36" ry="2.04" transform="translate(218.5 1353.51) rotate(-68.28)"/><ellipse class="cls-3" cx="1313.93" cy="440.88" rx="1.36" ry="2.04" transform="translate(418.12 1498.37) rotate(-68.28)"/><ellipse class="cls-3" cx="1365.59" cy="507.48" rx="1.36" ry="2.04" transform="translate(388.78 1588.32) rotate(-68.28)"/><ellipse class="cls-3" cx="1270.43" cy="389.22" rx="1.36" ry="2.04" transform="translate(438.7 1425.42) rotate(-68.28)"/><ellipse class="cls-3" cx="1229.65" cy="351.16" rx="1.36" ry="2.04" transform="translate(448.37 1363.56) rotate(-68.28)"/><ellipse class="cls-3" cx="1300.34" cy="353.88" rx="1.36" ry="2.04" transform="translate(490.38 1430.94) rotate(-68.28)"/><ellipse class="cls-3" cx="1394.13" cy="381.06" rx="1.36" ry="2.04" transform="translate(524.21 1535.2) rotate(-68.28)"/><ellipse class="cls-3" cx="1073.32" cy="393.3" rx="1.36" ry="2.04" transform="translate(310.75 1244.87) rotate(-68.28)"/><ellipse class="cls-3" cx="972.73" cy="473.5" rx="1.36" ry="2.04" transform="translate(172.87 1201.94) rotate(-68.28)"/><ellipse class="cls-3" cx="934.66" cy="474.86" rx="1.36" ry="2.04" transform="translate(147.63 1167.44) rotate(-68.28)"/><ellipse class="cls-3" cx="823.2" cy="476.22" rx="1.36" ry="2.04" transform="translate(76.15 1064.74) rotate(-68.28)"/><ellipse class="cls-3" cx="692.7" cy="503.41" rx="1.36" ry="2.04" transform="translate(-31.31 960.63) rotate(-68.28)"/><ellipse class="cls-3" cx="687.26" cy="410.97" rx="1.36" ry="2.04" transform="translate(51.14 897.35) rotate(-68.28)"/><ellipse class="cls-3" cx="607.05" cy="435.44" rx="1.36" ry="2.04" transform="translate(-22.12 838.26) rotate(-68.28)"/><ellipse class="cls-3" cx="577.15" cy="485.73" rx="1.36" ry="2.04" transform="translate(-87.68 842.16) rotate(-68.28)"/><ellipse class="cls-3" cx="549.96" cy="440.88" rx="1.36" ry="2.04" transform="translate(-63.14 788.64) rotate(-68.28)"/><ellipse class="cls-3" cx="537.73" cy="417.77" rx="1.36" ry="2.04" transform="translate(-49.37 762.72) rotate(-68.28)"/><polygon class="cls-5" points="461 2086.55 634.24 2101.12 674.3 2125.41 721.37 2152.6 774.44 2185.63 846.54 2152.6 902.62 2185.63 948.69 2204.09 1024.79 2175.92 1096.9 2170.09 1096.9 2270.14 1136.95 2273.05 1190.03 2273.05 1271.14 2223.51 1346.25 2204.09 1409.34 2179.8 1465.41 2179.8 1465.41 2208.94 1527.5 2243.91 1555.54 2243.91 1618.63 2238.08 1686.73 2208.94 1839.94 2179.8 1943.09 2232.25 1987.15 2248.77 2052.24 2208.94 2117.33 2208.94 2158.39 2248.77 2218.47 2245.85 2274.55 2223.51 2331.64 2204.09 2366.68 2179.8 2439.79 2154.55 2458.81 2179.8 2486.85 2208.94 2523.91 2223.51 2618.04 2232.25 2683.13 2179.8 2708.16 2123.46 2761.24 2089.47 2818.32 2089.47 2945.5 2070.04 2995.57 2020.5 3039.63 2050.61 3064.67 2086.55 3076.68 2123.46 3076.68 2175.92 3117.74 2173 3167.81 2173 3204.86 2146.78 3245.92 2089.47 3301 2060.97 3301 2546 461 2546 461 2086.55"/><ellipse class="cls-3" cx="1513.15" cy="422.48" rx="1.36" ry="2.04" transform="translate(560.7 1671.86) rotate(-68.28)"/><ellipse class="cls-3" cx="1455.15" cy="444.48" rx="1.36" ry="2.04" transform="translate(503.72 1631.84) rotate(-68.28)"/><ellipse class="cls-3" cx="1528.15" cy="419.48" rx="1.36" ry="2.04" transform="translate(572.93 1683.91) rotate(-68.28)"/><ellipse class="cls-3" cx="1626.15" cy="361.48" rx="1.36" ry="2.04" transform="translate(688.55 1738.41) rotate(-68.28)"/><ellipse class="cls-3" cx="1686.15" cy="334.48" rx="1.36" ry="2.04" transform="translate(751.43 1777.15) rotate(-68.28)"/><ellipse class="cls-3" cx="1658.15" cy="264.48" rx="1.36" ry="2.04" transform="translate(798.82 1707.04) rotate(-68.28)"/><ellipse class="cls-3" cx="1594.15" cy="246.48" rx="1.36" ry="2.04" transform="translate(775.23 1636.24) rotate(-68.28)"/><ellipse class="cls-3" cx="1543.15" cy="259.48" rx="1.36" ry="2.04" transform="translate(731.02 1597.05) rotate(-68.28)"/><ellipse class="cls-3" cx="1470.15" cy="270.48" rx="1.36" ry="2.04" transform="translate(674.82 1536.17) rotate(-68.28)"/><ellipse class="cls-3" cx="1399.15" cy="279.48" rx="1.36" ry="2.04" transform="translate(621.73 1475.88) rotate(-68.28)"/><ellipse class="cls-3" cx="1348.15" cy="279.48" rx="1.36" ry="2.04" transform="translate(589.6 1428.5) rotate(-68.28)"/><ellipse class="cls-3" cx="1285.15" cy="222.48" rx="1.36" ry="2.04" transform="translate(602.87 1334.06) rotate(-68.28)"/><ellipse class="cls-3" cx="1250.15" cy="119.48" rx="1.36" ry="2.04" transform="translate(676.51 1236.66) rotate(-68.28)"/><ellipse class="cls-3" cx="1249.15" cy="47.48" rx="1.36" ry="2.04" transform="translate(742.77 1190.38) rotate(-68.28)"/><ellipse class="cls-3" cx="1301.15" cy="43.48" rx="1.36" ry="2.04" transform="translate(779.24 1236.17) rotate(-68.28)"/><ellipse class="cls-3" cx="1301.15" cy="43.48" rx="1.36" ry="2.04" transform="translate(779.24 1236.17) rotate(-68.28)"/><ellipse class="cls-3" cx="1384.15" cy="112.48" rx="1.36" ry="2.04" transform="translate(767.43 1356.74) rotate(-68.28)"/><ellipse class="cls-3" cx="1439.15" cy="87.48" rx="1.36" ry="2.04" transform="translate(825.3 1392.09) rotate(-68.28)"/><ellipse class="cls-3" cx="1569.15" cy="74.48" rx="1.36" ry="2.04" transform="translate(919.27 1504.67) rotate(-68.28)"/><ellipse class="cls-3" cx="1569.15" cy="74.48" rx="1.36" ry="2.04" transform="translate(919.27 1504.67) rotate(-68.28)"/><ellipse class="cls-3" cx="1714.15" cy="68.48" rx="1.36" ry="2.04" transform="translate(1016.18 1635.6) rotate(-68.28)"/><ellipse class="cls-3" cx="1758.15" cy="54.48" rx="1.36" ry="2.04" transform="translate(1056.91 1667.65) rotate(-68.28)"/><ellipse class="cls-3" cx="1838.15" cy="72.48" rx="1.36" ry="2.04" transform="translate(1090.58 1753.31) rotate(-68.28)"/><ellipse class="cls-3" cx="1876.15" cy="113.48" rx="1.36" ry="2.04" transform="translate(1076.43 1814.44) rotate(-68.28)"/><ellipse class="cls-3" cx="1850.15" cy="196.48" rx="1.36" ry="2.04" transform="translate(982.94 1842.57) rotate(-68.28)"/><ellipse class="cls-3" cx="1897.15" cy="195.48" rx="1.36" ry="2.04" transform="translate(1013.48 1885.61) rotate(-68.28)"/><ellipse class="cls-3" cx="1953.15" cy="195.48" rx="1.36" ry="2.04" transform="translate(1048.75 1937.63) rotate(-68.28)"/><ellipse class="cls-3" cx="2010.15" cy="188.48" rx="1.36" ry="2.04" transform="translate(1091.16 1986.17) rotate(-68.28)"/><ellipse class="cls-3" cx="2073.15" cy="107.48" rx="1.36" ry="2.04" transform="translate(1206.1 1993.68) rotate(-68.28)"/><ellipse class="cls-3" cx="1920.15" cy="196.48" rx="1.36" ry="2.04" transform="translate(1027.04 1907.6) rotate(-68.28)"/><ellipse class="cls-3" cx="1831.15" cy="288.48" rx="1.36" ry="2.04" transform="translate(885.5 1882.88) rotate(-68.28)"/><ellipse class="cls-3" cx="1810.15" cy="309.48" rx="1.36" ry="2.04" transform="translate(852.77 1876.59) rotate(-68.28)"/><ellipse class="cls-3" cx="1802.15" cy="319.48" rx="1.36" ry="2.04" transform="translate(838.44 1875.46) rotate(-68.28)"/><ellipse class="cls-3" cx="1912.15" cy="316.48" rx="1.36" ry="2.04" transform="translate(910.52 1975.76) rotate(-68.28)"/><ellipse class="cls-3" cx="1989.15" cy="299.48" rx="1.36" ry="2.04" transform="translate(974.81 2036.59) rotate(-68.28)"/><ellipse class="cls-3" cx="2130.15" cy="283.48" rx="1.36" ry="2.04" transform="translate(1078.5 2157.5) rotate(-68.28)"/><ellipse class="cls-3" cx="2219.15" cy="251.48" rx="1.36" ry="2.04" transform="translate(1164.29 2220.02) rotate(-68.28)"/><ellipse class="cls-3" cx="2219.15" cy="251.48" rx="1.36" ry="2.04" transform="translate(1164.29 2220.02) rotate(-68.28)"/><ellipse class="cls-3" cx="2357.15" cy="224.48" rx="1.36" ry="2.04" transform="translate(1276.31 2331.22) rotate(-68.28)"/><ellipse class="cls-3" cx="2417.15" cy="182.48" rx="1.36" ry="2.04" transform="translate(1353.12 2360.5) rotate(-68.28)"/><ellipse class="cls-3" cx="2468.15" cy="195.48" rx="1.36" ry="2.04" transform="translate(1373.17 2416.07) rotate(-68.28)"/><ellipse class="cls-3" cx="2482.15" cy="213.48" rx="1.36" ry="2.04" transform="translate(1365.27 2440.41) rotate(-68.28)"/><ellipse class="cls-3" cx="2482.15" cy="213.48" rx="1.36" ry="2.04" transform="translate(1365.27 2440.41) rotate(-68.28)"/><ellipse class="cls-3" cx="2441.15" cy="407.48" rx="1.36" ry="2.04" transform="translate(1159.21 2524.53) rotate(-68.28)"/><ellipse class="cls-3" cx="2245.15" cy="411.48" rx="1.36" ry="2.04" transform="translate(1032.03 2344.97) rotate(-68.28)"/><ellipse class="cls-3" cx="2245.15" cy="411.48" rx="1.36" ry="2.04" transform="translate(1032.03 2344.97) rotate(-68.28)"/><ellipse class="cls-3" cx="2203.15" cy="407.48" rx="1.36" ry="2.04" transform="translate(1009.29 2303.43) rotate(-68.28)"/><ellipse class="cls-3" cx="2229.15" cy="302.48" rx="1.36" ry="2.04" transform="translate(1123.21 2261.44) rotate(-68.28)"/><ellipse class="cls-3" cx="2229.15" cy="302.48" rx="1.36" ry="2.04" transform="translate(1123.21 2261.44) rotate(-68.28)"/><ellipse class="cls-3" cx="2417.15" cy="213.48" rx="1.36" ry="2.04" transform="translate(1324.32 2380.03) rotate(-68.28)"/><ellipse class="cls-3" cx="2501.15" cy="166.48" rx="1.36" ry="2.04" transform="translate(1420.9 2428.46) rotate(-68.28)"/><ellipse class="cls-3" cx="2498.15" cy="122.48" rx="1.36" ry="2.04" transform="translate(1459.89 2397.95) rotate(-68.28)"/><ellipse class="cls-3" cx="2366.15" cy="109.48" rx="1.36" ry="2.04" transform="translate(1388.81 2267.14) rotate(-68.28)"/><ellipse class="cls-3" cx="2271.15" cy="152.48" rx="1.36" ry="2.04" transform="translate(1289.02 2205.97) rotate(-68.28)"/><ellipse class="cls-3" cx="2196.15" cy="191.48" rx="1.36" ry="2.04" transform="translate(1205.54 2160.86) rotate(-68.28)"/><ellipse class="cls-3" cx="2196.15" cy="191.48" rx="1.36" ry="2.04" transform="translate(1205.54 2160.86) rotate(-68.28)"/><ellipse class="cls-3" cx="2152.15" cy="113.48" rx="1.36" ry="2.04" transform="translate(1250.29 2070.85) rotate(-68.28)"/><ellipse class="cls-3" cx="2141.15" cy="122.48" rx="1.36" ry="2.04" transform="translate(1235 2066.3) rotate(-68.28)"/><ellipse class="cls-3" cx="2306.15" cy="63.48" rx="1.36" ry="2.04" transform="translate(1393.75 2182.42) rotate(-68.28)"/><ellipse class="cls-3" cx="2130.15" cy="61.48" rx="1.36" ry="2.04" transform="translate(1284.74 2017.65) rotate(-68.28)"/><ellipse class="cls-3" cx="2091.15" cy="9.48" rx="1.36" ry="2.04" transform="translate(1308.48 1948.66) rotate(-68.28)"/><ellipse class="cls-3" cx="1916.15" cy="16.48" rx="1.36" ry="2.04" transform="translate(1191.74 1790.5) rotate(-68.28)"/><ellipse class="cls-3" cx="1790.15" cy="32.48" rx="1.36" ry="2.04" transform="translate(1097.5 1683.52) rotate(-68.28)"/><ellipse class="cls-3" cx="1594.15" cy="14.48" rx="1.36" ry="2.04" transform="translate(990.76 1490.1) rotate(-68.28)"/><ellipse class="cls-3" cx="1480.15" cy="21.48" rx="1.36" ry="2.04" transform="translate(912.44 1388.6) rotate(-68.28)"/><ellipse class="cls-3" cx="1550.15" cy="116.48" rx="1.36" ry="2.04" transform="translate(868.28 1513.48) rotate(-68.28)"/><ellipse class="cls-3" cx="1670.15" cy="115.48" rx="1.36" ry="2.04" transform="translate(944.8 1624.33) rotate(-68.28)"/><ellipse class="cls-3" cx="1704.15" cy="141.48" rx="1.36" ry="2.04" transform="translate(942.07 1672.29) rotate(-68.28)"/><ellipse class="cls-3" cx="1713.15" cy="192.48" rx="1.36" ry="2.04" transform="translate(900.36 1712.78) rotate(-68.28)"/><ellipse class="cls-3" cx="1675.15" cy="218.48" rx="1.36" ry="2.04" transform="translate(852.26 1693.85) rotate(-68.28)"/><ellipse class="cls-3" cx="1733.15" cy="214.48" rx="1.36" ry="2.04" transform="translate(892.52 1745.22) rotate(-68.28)"/><ellipse class="cls-3" cx="1724.15" cy="261.48" rx="1.36" ry="2.04" transform="translate(843.18 1766.46) rotate(-68.28)"/><ellipse class="cls-3" cx="1780.15" cy="148.48" rx="1.36" ry="2.04" transform="translate(983.44 1747.3) rotate(-68.28)"/><ellipse class="cls-3" cx="1604.15" cy="151.48" rx="1.36" ry="2.04" transform="translate(869.78 1585.69) rotate(-68.28)"/><ellipse class="cls-3" cx="1509.15" cy="180.48" rx="1.36" ry="2.04" transform="translate(783 1515.7) rotate(-68.28)"/><ellipse class="cls-3" cx="2467.15" cy="2.48" rx="1.36" ry="2.04" transform="translate(1551.84 2293.56) rotate(-68.28)"/><ellipse class="cls-3" cx="2298.15" cy="67.48" rx="1.36" ry="2.04" transform="translate(1384.99 2177.51) rotate(-68.28)"/><ellipse class="cls-3" cx="2544.15" cy="53.48" rx="1.36" ry="2.04" transform="translate(1552.96 2397.22) rotate(-68.28)"/><ellipse class="cls-3" cx="2632.15" cy="53.48" rx="1.36" ry="2.04" transform="translate(1608.4 2478.97) rotate(-68.28)"/><ellipse class="cls-3" cx="2653.15" cy="104.48" rx="1.36" ry="2.04" transform="translate(1574.25 2530.61) rotate(-68.28)"/><ellipse class="cls-3" cx="2625.15" cy="188.48" rx="1.36" ry="2.04" transform="translate(1478.57 2557.51) rotate(-68.28)"/><ellipse class="cls-3" cx="2581.15" cy="298.48" rx="1.36" ry="2.04" transform="translate(1348.67 2585.93) rotate(-68.28)"/><ellipse class="cls-3" cx="2560.15" cy="319.48" rx="1.36" ry="2.04" transform="translate(1315.93 2579.65) rotate(-68.28)"/><ellipse class="cls-3" cx="2445.15" cy="272.48" rx="1.36" ry="2.04" transform="translate(1287.15 2443.21) rotate(-68.28)"/><ellipse class="cls-3" cx="2339.15" cy="246.48" rx="1.36" ry="2.04" transform="translate(1244.53 2328.35) rotate(-68.28)"/><ellipse class="cls-3" cx="2376.15" cy="338.48" rx="1.36" ry="2.04" transform="translate(1182.37 2420.68) rotate(-68.28)"/><ellipse class="cls-3" cx="2570.15" cy="358.48" rx="1.36" ry="2.04" transform="translate(1286 2613.51) rotate(-68.28)"/><ellipse class="cls-3" cx="2613.15" cy="353.48" rx="1.36" ry="2.04" transform="translate(1317.73 2650.3) rotate(-68.28)"/><ellipse class="cls-3" cx="2694.15" cy="387.48" rx="1.36" ry="2.04" transform="translate(1337.17 2746.97) rotate(-68.28)"/><ellipse class="cls-3" cx="2745.15" cy="429.48" rx="1.36" ry="2.04" transform="translate(1330.28 2820.81) rotate(-68.28)"/><ellipse class="cls-3" cx="2661.15" cy="283.48" rx="1.36" ry="2.04" transform="translate(1413 2650.8) rotate(-68.28)"/><ellipse class="cls-3" cx="2676.15" cy="222.48" rx="1.36" ry="2.04" transform="translate(1479.11 2626.31) rotate(-68.28)"/><ellipse class="cls-3" cx="3086.15" cy="47.48" rx="1.36" ry="2.04" transform="translate(1899.96 2896.96) rotate(-68.28)"/><ellipse class="cls-3" cx="3129.15" cy="31.48" rx="1.36" ry="2.04" transform="translate(1941.92 2926.83) rotate(-68.28)"/><ellipse class="cls-3" cx="3152.15" cy="34.48" rx="1.36" ry="2.04" transform="translate(1953.62 2950.09) rotate(-68.28)"/><ellipse class="cls-3" cx="3178.15" cy="75.48" rx="1.36" ry="2.04" transform="translate(1931.91 3000.07) rotate(-68.28)"/><ellipse class="cls-3" cx="3169.15" cy="170.48" rx="1.36" ry="2.04" transform="translate(1837.98 3051.55) rotate(-68.28)"/><ellipse class="cls-3" cx="3200.15" cy="158.48" rx="1.36" ry="2.04" transform="translate(1868.66 3072.79) rotate(-68.28)"/><ellipse class="cls-3" cx="3231.15" cy="202.48" rx="1.36" ry="2.04" transform="translate(1847.31 3129.31) rotate(-68.28)"/><ellipse class="cls-3" cx="3218.15" cy="230.48" rx="1.36" ry="2.04" transform="translate(1813.11 3134.87) rotate(-68.28)"/><ellipse class="cls-3" cx="3236.15" cy="301.48" rx="1.36" ry="2.04" transform="translate(1758.49 3196.32) rotate(-68.28)"/><ellipse class="cls-3" cx="3268.15" cy="342.48" rx="1.36" ry="2.04" transform="translate(1740.56 3251.87) rotate(-68.28)"/><ellipse class="cls-3" cx="3250.15" cy="383.48" rx="1.36" ry="2.04" transform="translate(1691.13 3260.98) rotate(-68.28)"/><ellipse class="cls-3" cx="3207.15" cy="403.48" rx="1.36" ry="2.04" transform="translate(1645.46 3233.63) rotate(-68.28)"/><ellipse class="cls-3" cx="3141.15" cy="381.48" rx="1.36" ry="2.04" transform="translate(1624.32 3158.46) rotate(-68.28)"/><ellipse class="cls-3" cx="3154.15" cy="379.48" rx="1.36" ry="2.04" transform="translate(1634.37 3169.28) rotate(-68.28)"/><ellipse class="cls-3" cx="3105.15" cy="480.48" rx="1.36" ry="2.04" transform="translate(1509.67 3187.38) rotate(-68.28)"/><ellipse class="cls-3" cx="3041.15" cy="539.48" rx="1.36" ry="2.04" transform="translate(1414.55 3165.09) rotate(-68.28)"/><ellipse class="cls-3" cx="3041.15" cy="539.48" rx="1.36" ry="2.04" transform="translate(1414.55 3165.09) rotate(-68.28)"/><ellipse class="cls-3" cx="2954.15" cy="453.48" rx="1.36" ry="2.04" transform="translate(1439.64 3030.09) rotate(-68.28)"/><ellipse class="cls-3" cx="2951.15" cy="453.48" rx="1.36" ry="2.04" transform="translate(1437.75 3027.3) rotate(-68.28)"/><ellipse class="cls-3" cx="2841.15" cy="464.48" rx="1.36" ry="2.04" transform="translate(1358.23 2932.04) rotate(-68.28)"/><ellipse class="cls-3" cx="2841.15" cy="464.48" rx="1.36" ry="2.04" transform="translate(1358.23 2932.04) rotate(-68.28)"/><ellipse class="cls-3" cx="2794.15" cy="407.48" rx="1.36" ry="2.04" transform="translate(1381.58 2852.47) rotate(-68.28)"/><ellipse class="cls-3" cx="2774.15" cy="371.48" rx="1.36" ry="2.04" transform="translate(1402.43 2811.21) rotate(-68.28)"/><ellipse class="cls-3" cx="2748.15" cy="202.48" rx="1.36" ry="2.04" transform="translate(1543.05 2680.6) rotate(-68.28)"/><ellipse class="cls-3" cx="2694.15" cy="109.48" rx="1.36" ry="2.04" transform="translate(1595.43 2571.85) rotate(-68.28)"/><ellipse class="cls-3" cx="2743.15" cy="24.48" rx="1.36" ry="2.04" transform="translate(1705.26 2563.83) rotate(-68.28)"/><ellipse class="cls-3" cx="2800.15" cy="8.48" rx="1.36" ry="2.04" transform="translate(1756.03 2606.7) rotate(-68.28)"/><ellipse class="cls-3" cx="2832.15" cy="9.48" rx="1.36" ry="2.04" transform="translate(1775.26 2637.06) rotate(-68.28)"/><polygon class="cls-5" points="461 2086.55 634.24 2101.12 674.3 2125.41 721.37 2152.6 774.44 2185.63 846.54 2152.6 902.62 2185.63 948.69 2204.09 1024.79 2175.92 1096.9 2170.09 1096.9 2270.14 1136.95 2273.05 1190.03 2273.05 1271.14 2223.51 1346.25 2204.09 1409.34 2179.8 1465.41 2179.8 1465.41 2208.94 1527.5 2243.91 1555.54 2243.91 1618.63 2238.08 1686.73 2208.94 1839.94 2179.8 1943.09 2232.25 1987.15 2248.77 2052.24 2208.94 2117.33 2208.94 2158.39 2248.77 2218.47 2245.85 2274.55 2223.51 2331.64 2204.09 2366.68 2179.8 2439.79 2154.55 2458.81 2179.8 2486.85 2208.94 2523.91 2223.51 2618.04 2232.25 2683.13 2179.8 2708.16 2123.46 2761.24 2089.47 2818.32 2089.47 2945.5 2070.04 2995.57 2020.5 3039.63 2050.61 3064.67 2086.55 3076.68 2123.46 3076.68 2175.92 3117.74 2173 3167.81 2173 3204.86 2146.78 3245.92 2089.47 3301 2060.97 3301 2546 461 2546 461 2086.55"/><polygon class="cls-6" points="461 2546 461 2274.64 534.1 2313.81 575.16 2319.54 618.22 2287.06 653.27 2248.84 734.38 2274.64 748.4 2305.21 748.4 2339.61 765.43 2375.92 815.5 2375.92 859.56 2359.68 880.59 2319.54 1043.82 2305.21 1089.89 2313.81 1117.92 2326.23 1136.95 2375.92 1218.07 2375.92 1265.13 2339.61 1327.22 2305.21 1405.33 2305.21 1452.4 2326.23 1507.47 2359.68 1555.54 2359.68 1614.63 2313.81 1714.77 2305.21 1749.82 2274.64 1811.9 2274.64 1881 2313.81 1921.06 2339.61 1984.14 2375.92 2024.2 2359.68 2071.27 2339.61 2133.36 2339.61 2165.4 2375.92 2218.47 2375.92 2294.58 2339.61 2312.61 2305.21 2366.68 2277.5 2423.76 2248.84 2486.85 2214.44 2523.91 2228.77 2523.91 2277.5 2542.93 2305.21 2579.98 2319.54 2708.16 2313.81 2749.22 2287.06 2799.29 2237.37 2830.34 2214.44 2942.49 2237.37 3086.7 2266.03 3133.76 2266.03 3176.82 2237.37 3239.91 2214.44 3301 2213.09 3301 2546 461 2546"/><ellipse class="cls-3" cx="509.62" cy="54.25" rx="2.04" ry="1.36"/><ellipse class="cls-3" cx="535.45" cy="154.84" rx="2.04" ry="1.36"/><ellipse class="cls-3" cx="547.68" cy="6.67" rx="1.36" ry="2.04" transform="translate(338.81 513) rotate(-68.28)"/><ellipse class="cls-3" cx="538.16" cy="232.33" rx="1.36" ry="2.04" transform="translate(123.17 646.31) rotate(-68.28)"/><ellipse class="cls-3" cx="535.45" cy="237.77" rx="1.36" ry="2.04" transform="translate(116.41 647.21) rotate(-68.28)"/><ellipse class="cls-3" cx="527.29" cy="274.47" rx="1.36" ry="2.04" transform="translate(77.18 662.75) rotate(-68.28)"/><ellipse class="cls-3" cx="538.16" cy="303.02" rx="1.36" ry="2.04" transform="translate(57.51 690.84) rotate(-68.28)"/><ellipse class="cls-3" cx="555.84" cy="330.2" rx="1.36" ry="2.04" transform="translate(43.38 724.38) rotate(-68.28)"/><ellipse class="cls-3" cx="576.23" cy="331.56" rx="1.36" ry="2.04" transform="translate(54.96 744.18) rotate(-68.28)"/><ellipse class="cls-3" cx="576.23" cy="331.56" rx="1.36" ry="2.04" transform="translate(54.96 744.18) rotate(-68.28)"/><ellipse class="cls-3" cx="572.15" cy="479.73" rx="1.36" ry="2.04" transform="translate(-85.26 833.73) rotate(-68.28)"/><ellipse class="cls-3" cx="544.96" cy="434.88" rx="1.36" ry="2.04" transform="translate(-60.71 780.22) rotate(-68.28)"/><ellipse class="cls-3" cx="532.73" cy="411.77" rx="1.36" ry="2.04" transform="translate(-46.95 754.29) rotate(-68.28)"/><ellipse class="cls-3" cx="3124.15" cy="25.48" rx="1.36" ry="2.04" transform="translate(1944.34 2918.41) rotate(-68.28)"/><ellipse class="cls-3" cx="3147.15" cy="28.48" rx="1.36" ry="2.04" transform="translate(1956.04 2941.66) rotate(-68.28)"/><ellipse class="cls-3" cx="3173.15" cy="69.48" rx="1.36" ry="2.04" transform="translate(1934.33 2991.65) rotate(-68.28)"/><ellipse class="cls-3" cx="3164.15" cy="164.48" rx="1.36" ry="2.04" transform="translate(1840.41 3043.13) rotate(-68.28)"/><ellipse class="cls-3" cx="3195.15" cy="152.48" rx="1.36" ry="2.04" transform="translate(1871.08 3064.37) rotate(-68.28)"/><ellipse class="cls-3" cx="3226.15" cy="196.48" rx="1.36" ry="2.04" transform="translate(1849.73 3120.89) rotate(-68.28)"/><ellipse class="cls-3" cx="3213.15" cy="224.48" rx="1.36" ry="2.04" transform="translate(1815.53 3126.45) rotate(-68.28)"/><ellipse class="cls-3" cx="3231.15" cy="295.48" rx="1.36" ry="2.04" transform="translate(1760.91 3187.89) rotate(-68.28)"/><ellipse class="cls-3" cx="3263.15" cy="336.48" rx="1.36" ry="2.04" transform="translate(1742.98 3243.45) rotate(-68.28)"/><ellipse class="cls-3" cx="3245.15" cy="377.48" rx="1.36" ry="2.04" transform="translate(1693.55 3252.55) rotate(-68.28)"/><ellipse class="cls-3" cx="3202.15" cy="397.48" rx="1.36" ry="2.04" transform="translate(1647.88 3225.21) rotate(-68.28)"/><ellipse class="cls-3" cx="3136.15" cy="375.48" rx="1.36" ry="2.04" transform="translate(1626.75 3150.03) rotate(-68.28)"/><ellipse class="cls-3" cx="3149.15" cy="373.48" rx="1.36" ry="2.04" transform="translate(1636.79 3160.85) rotate(-68.28)"/></svg>
