<svg id="ninja_sword" xmlns="http://www.w3.org/2000/svg" viewBox="0 0 2440 2050"><defs><style>.cls-1{fill:#720d0d;}.cls-2{fill:#cc8671;}.cls-3{fill:#f9f9f9;}.cls-4{fill:#fff;}.cls-5{fill:#514848;}.cls-6{fill:#c9c1c1;}</style></defs><title>ninja_hits</title><path d="M1026.89,765c0-104.39,84.62-189,189-189s189,84.62,189,189"/><rect x="1026.89" y="765.01" width="378.02" height="163.41"/><rect x="1026.89" y="765.01" width="378.02" height="163.41"/><rect class="cls-1" x="1026.89" y="765.01" width="378.02" height="33.47"/><rect class="cls-2" x="1026.89" y="808.32" width="98.44" height="63"/><circle cx="1058.39" cy="839.83" r="17.72"/><circle class="cls-3" cx="1062.82" cy="830.33" r="3.16"/><circle class="cls-3" cx="1070.41" cy="836.66" r="3.16"/><polygon points="1320.24 1528.92 1117.45 1528.92 1026.89 928.42 1404.91 928.42 1320.24 1528.92"/><rect x="769.07" y="1079.25" width="324.85" height="48.72" transform="translate(-279.44 316.66) rotate(-16.82)"/><rect x="478.43" y="1167.46" width="324.85" height="48.72" rx="5.36" transform="translate(-317.38 236.36) rotate(-16.82)"/><circle cx="773.89" cy="1151.89" r="24.61"/><rect x="1340.23" y="1078.94" width="324.85" height="48.72" transform="translate(2997.57 2217.06) rotate(-179.6)"/><circle cx="1667.49" cy="1103.82" r="24.61"/><polygon points="1714.85 847.7 1325.53 1048.93 1387.69 1100.78 1777.02 899.56 1714.85 847.7"/><ellipse cx="1528.73" cy="995.09" rx="12.14" ry="88.66" transform="translate(-292.73 897.68) rotate(-30)"/><polygon class="cls-4" points="1580.69 980.75 1547.08 978.09 1551.13 956.02 1584.74 958.68 1580.69 980.75"/><polygon class="cls-4" points="1642.4 943.77 1608.79 941.11 1612.84 919.04 1646.45 921.7 1642.4 943.77"/><polygon class="cls-4" points="1707.42 913.6 1673.81 910.94 1677.87 888.87 1711.48 891.53 1707.42 913.6"/><polygon class="cls-5" points="1060.75 1154.78 1057.02 1124.37 1152.7 930.48 1170.06 930.64 1060.75 1154.78"/><rect x="409.69" y="1734.16" width="546.49" height="85.18" transform="translate(2459.69 1093.82) rotate(90)"/><rect x="638.69" y="1449.61" width="563.01" height="84.43" rx="5.36" transform="translate(1863.51 2969.14) rotate(179.11)"/><circle cx="683.53" cy="1500.22" r="42.65"/><rect x="1514.21" y="1731.78" width="546.49" height="85.18" transform="translate(-642.44 1111.78) rotate(-29.54)"/><rect x="1141.08" y="1666.2" width="563.01" height="84.43" rx="5.36" transform="translate(2175.19 -383.48) rotate(59.57)"/><circle cx="1546.57" cy="1910.18" r="42.65"/><rect class="cls-1" x="1026.89" y="765.01" width="378.02" height="33.47"/><rect class="cls-2" x="1026.89" y="808.32" width="98.44" height="63"/><circle cx="1058.39" cy="839.83" r="17.72"/><circle class="cls-3" cx="1062.82" cy="830.33" r="3.16"/><circle class="cls-3" cx="1070.41" cy="836.66" r="3.16"/><rect x="1573.43" y="1216.46" width="324.85" height="48.72" rx="5.36" transform="translate(2213.97 -838.66) rotate(67.39)"/><polygon points="615.01 1285.84 398.97 904.53 349.54 968.64 565.58 1349.95 615.01 1285.84"/><ellipse cx="460.58" cy="1105.52" rx="88.66" ry="12.14" transform="translate(-518.29 415.5) rotate(-32.2)"/><polygon class="cls-4" points="476.9 1156.88 478.27 1123.2 500.48 1126.4 499.11 1160.09 476.9 1156.88"/><polygon class="cls-4" points="516.23 1217.13 517.6 1183.44 539.8 1186.64 538.43 1220.33 516.23 1217.13"/><polygon class="cls-4" points="548.87 1280.95 550.24 1247.26 572.45 1250.46 571.08 1284.15 548.87 1280.95"/><polygon class="cls-6" points="481 1050 160.21 476.67 111.14 544.82 432.72 1116.68 481 1050"/></svg>
